<?xml version="1.0" encoding="iso-8859-1"?>
<!-- Generator: Adobe Illustrator 19.0.0, SVG Export Plug-In . SVG Version: 6.00 Build 0)  -->
<svg version="1.1" id="Layer_1" xmlns="http://www.w3.org/2000/svg" xmlns:xlink="http://www.w3.org/1999/xlink" x="0px" y="0px"
	 viewBox="0 0 512.001 512.001" style="enable-background:new 0 0 512.001 512.001;" xml:space="preserve">
<g>
	<g>
		<path d="M507.099,206.245l-37.804-37.804c-6.538-6.538-17.14-6.538-23.679,0l-7.93,7.93L335.649,74.333l7.93-7.93
			c6.539-6.538,6.539-17.14,0-23.679L305.773,4.919c-6.532-6.535-17.142-6.539-23.679,0l-144.899,144.9
			c-6.535,6.532-6.538,17.141,0,23.679l37.804,37.803c6.539,6.539,17.14,6.539,23.679,0l7.93-7.93l39.179,39.179l-72.065,72.065
			l-9.682-9.682c-6.538-6.538-17.14-6.538-23.679,0L13.83,431.466c-18.438,18.437-18.44,48.281,0,66.722
			c18.395,18.396,48.327,18.397,66.723,0l126.532-126.532c6.536-6.534,6.538-17.142,0-23.679l-9.682-9.682l72.065-72.065
			l39.179,39.179l-7.93,7.93c-6.539,6.538-6.539,17.139,0,23.679l37.803,37.804c6.532,6.535,17.142,6.539,23.679,0l144.9-144.899
			C513.632,223.391,513.638,212.781,507.099,206.245z M56.873,474.509c-5.339,5.339-14.026,5.339-19.365,0
			c-5.35-5.349-5.352-14.013,0-19.365l114.693-114.693l19.365,19.365L56.873,474.509z M186.839,175.783l-14.124-14.125
			l121.219-121.22l14.125,14.125L186.839,175.783z M230.288,179.694l81.68-81.682l102.037,102.037l-81.682,81.68L230.288,179.694z
			 M350.36,339.304l-14.124-14.125l121.22-121.22l14.125,14.125L350.36,339.304z"/>
	</g>
</g>
<g>
</g>
<g>
</g>
<g>
</g>
<g>
</g>
<g>
</g>
<g>
</g>
<g>
</g>
<g>
</g>
<g>
</g>
<g>
</g>
<g>
</g>
<g>
</g>
<g>
</g>
<g>
</g>
<g>
</g>
</svg>
