<svg xmlns="http://www.w3.org/2000/svg" viewBox="0 0 1280.000000 1213.000000">
<g transform="translate(0.000000,1213.000000) scale(0.100000,-0.100000)" stroke="none">
    <path d="M6370 11826 c0 -3 -65 -207 -145 -453 -80 -246 -145 -458 -145 -471
0 -30 97 -415 116 -461 17 -41 19 -219 3 -255 -13 -27 -35 -36 -94 -36 -61 0
-111 29 -208 118 -129 118 -291 191 -497 226 -206 34 -536 46 -715 26 -262
-30 -404 -75 -1210 -388 -568 -220 -705 -255 -1000 -256 -163 -1 -172 0 -233
26 -35 15 -90 32 -122 39 -50 10 -61 9 -85 -7 -37 -24 -49 -58 -31 -93 15 -29
69 -58 224 -122 93 -38 128 -64 138 -104 5 -21 -198 -592 -896 -2523 -497
-1373 -935 -2585 -973 -2692 -39 -107 -79 -207 -89 -222 -10 -15 -36 -32 -61
-40 -66 -21 -59 -46 46 -166 97 -111 296 -306 415 -408 323 -276 731 -434
1332 -516 59 -8 197 -13 365 -12 224 0 293 4 405 21 527 82 1019 283 1345 547
156 127 290 266 397 413 63 87 62 97 -9 113 -75 16 -90 24 -109 61 -13 27
-375 1015 -1663 4541 -186 508 -291 810 -291 834 l0 37 123 -6 c366 -20 665
-28 762 -23 61 3 211 22 335 41 124 20 297 47 385 61 196 31 423 40 611 25
245 -19 369 -64 466 -169 63 -69 131 -195 178 -329 l33 -93 363 0 364 0 0 -62
c0 -222 -50 -526 -164 -998 -107 -447 -137 -661 -139 -1005 -1 -207 2 -259 21
-380 32 -196 85 -403 144 -569 107 -302 122 -376 121 -611 -1 -284 -35 -471
-148 -817 -106 -324 -136 -507 -135 -832 0 -316 17 -435 142 -976 l70 -305
-24 -14 c-12 -8 -55 -46 -94 -85 -121 -122 -174 -266 -174 -476 0 -134 11
-179 75 -310 51 -105 61 -152 45 -211 -37 -138 -307 -255 -680 -294 -235 -25
-489 -17 -780 26 -267 39 -358 49 -528 58 -213 10 -399 -1 -525 -33 -286 -73
-366 -196 -367 -559 0 -189 5 -206 93 -294 l61 -63 3196 0 3196 0 26 27 c62
67 97 179 105 335 13 262 -61 414 -242 499 -165 77 -349 103 -637 88 -191 -9
-269 -18 -509 -59 -272 -45 -434 -55 -709 -44 l-235 10 -125 42 c-175 59 -339
141 -400 200 -48 47 -50 50 -50 104 0 75 19 133 73 220 25 40 52 97 61 127 20
69 21 225 1 309 -29 121 -114 256 -220 349 -30 26 -55 56 -55 66 0 10 18 90
40 177 156 620 185 1036 104 1480 -14 74 -51 245 -84 380 -121 504 -151 738
-131 1007 13 171 36 281 131 643 141 533 164 689 148 1007 -11 229 -49 417
-143 696 -131 391 -178 687 -160 1010 l7 137 348 0 c266 0 350 3 358 13 6 6
37 71 70 144 129 284 229 383 430 419 116 20 466 29 592 15 58 -7 248 -34 423
-61 464 -72 512 -75 848 -61 156 6 337 14 402 18 l117 6 0 -28 c0 -16 -126
-378 -279 -804 -154 -427 -586 -1629 -961 -2671 -375 -1042 -688 -1910 -695
-1927 -10 -22 -21 -33 -35 -33 -11 0 -50 -6 -85 -12 -46 -9 -65 -17 -65 -28 0
-21 345 -359 465 -456 465 -372 916 -554 1500 -604 476 -40 938 35 1417 231
430 176 803 457 1008 759 52 76 52 90 0 90 -51 0 -88 18 -105 51 -8 14 -244
660 -525 1435 -282 775 -640 1762 -797 2194 -564 1554 -653 1801 -653 1814 0
25 38 46 178 99 78 30 153 62 168 72 53 35 68 132 23 156 -26 13 -99 3 -174
-26 -33 -13 -78 -28 -100 -34 -96 -26 -362 -5 -562 44 -124 30 -387 123 -798
283 -747 290 -852 317 -1245 316 -338 0 -533 -31 -760 -118 -108 -42 -145 -65
-238 -149 -163 -146 -312 -125 -312 44 0 23 36 171 80 328 l79 286 -158 455
c-113 324 -163 456 -175 458 -9 2 -16 1 -16 -2z m-3471 -3952 c787 -2169 1219
-3360 1270 -3499 35 -95 51 -155 51 -187 l0 -48 -1751 0 -1751 0 4 23 c4 17
1710 4765 1744 4851 6 15 8 16 15 4 4 -8 192 -523 418 -1144z m7564 706 c85
-234 483 -1318 883 -2410 400 -1092 729 -1995 732 -2007 l4 -23 -1772 0
c-1683 0 -1772 1 -1768 18 3 9 332 924 732 2032 400 1108 794 2198 874 2422
81 224 150 404 153 400 4 -4 77 -198 162 -432z"/>
</g>
</svg>
