<svg xmlns="http://www.w3.org/2000/svg" viewBox="0 0 1007.000000 1280.000000">
    <g transform="translate(0.000000,1280.000000) scale(0.100000,-0.100000)"
        stroke="none">
        <path d="M8580 12725 c-1345 -100 -1657 -123 -2920 -215 -602 -44 -1279 -93
-1505 -110 -225 -17 -903 -66 -1505 -110 -1234 -90 -1831 -134 -2160 -158
l-225 -17 -22 -240 c-180 -1929 -269 -3544 -234 -4240 29 -574 91 -1009 325
-2280 240 -1307 273 -1728 201 -2565 -58 -668 -211 -1713 -373 -2552 l-28
-146 90 -6 c50 -3 732 -10 1516 -16 784 -6 1898 -15 2475 -20 578 -5 1572 -14
2210 -20 638 -5 1668 -15 2289 -21 621 -5 1132 -7 1136 -2 11 13 85 737 130
1268 23 276 54 722 71 1040 17 295 18 1061 1 1290 -36 506 -72 872 -197 2005
-168 1523 -205 1952 -225 2595 -15 460 0 1340 40 2355 26 667 78 1728 96 1973
4 64 3 77 -9 77 -18 0 -20 -12 -47 -253 -173 -1537 -283 -2798 -321 -3682 -14
-327 -7 -953 15 -1250 33 -451 81 -942 186 -1880 112 -1004 143 -1318 182
-1800 20 -242 16 -973 -5 -1260 -36 -476 -97 -1036 -172 -1580 -40 -294 -83
-567 -90 -573 -3 -3 -1063 0 -2357 7 -4732 23 -6733 33 -6734 35 0 0 25 132
57 291 156 776 271 1526 328 2130 23 243 31 402 31 652 0 474 -43 864 -250
2273 -229 1556 -259 1988 -230 3265 11 476 32 1086 55 1610 31 691 61 1244 68
1251 2 2 453 49 1002 104 550 55 1311 132 1690 170 380 38 1118 112 1640 165
523 53 1238 125 1590 160 352 35 1203 121 1890 190 1453 146 1345 134 1345
151 0 18 92 23 -1050 -61z"/>
        <path d="M6151 11304 c-140 -79 -255 -144 -256 -144 -1 0 -43 47 -93 104 l-92
103 -133 7 c-72 3 -186 9 -252 12 l-120 6 -265 -191 c-145 -105 -268 -191
-273 -191 -4 0 -111 23 -237 50 -126 28 -235 50 -243 50 -8 0 -32 -13 -53 -28
-21 -15 -109 -76 -195 -134 l-156 -107 -163 257 c-90 141 -168 262 -174 269
-8 9 -60 -66 -206 -297 -107 -170 -198 -306 -201 -302 -3 4 -29 115 -58 247
-63 289 -59 275 -76 275 -17 0 -13 14 -106 -350 -94 -364 -91 -393 15 -182
l69 137 16 -35 c93 -204 153 -322 160 -314 4 5 84 119 176 254 93 135 176 255
186 268 17 22 18 21 164 -208 95 -149 151 -228 158 -223 7 4 113 80 236 170
123 90 231 163 240 163 9 0 130 -23 269 -51 161 -32 258 -47 265 -41 7 5 116
95 244 200 198 164 237 192 265 192 18 0 109 -9 202 -19 l168 -19 108 -107
109 -108 300 171 301 172 565 0 c480 0 565 2 565 14 0 11 -21 16 -82 20 -171
13 -982 56 -1036 55 -54 -1 -70 -8 -311 -145z"/>
        <path d="M8120 9653 c-58 -1 -512 -12 -1010 -23 -498 -11 -1096 -24 -1330 -30
-1367 -32 -2889 -66 -3580 -80 -278 -6 -556 -13 -617 -16 l-113 -6 0 -109 c0
-60 2 -109 5 -109 3 0 274 13 603 30 328 16 1502 75 2607 130 1106 55 2414
120 2907 145 494 25 913 45 933 45 24 0 35 4 35 15 0 15 -97 17 -440 8z"/>
        <path d="M7555 8779 c-442 -11 -1083 -26 -2560 -59 -726 -16 -1522 -34 -1770
-40 -1103 -25 -1297 -30 -1565 -35 -157 -3 -340 -8 -407 -11 l-123 -6 0 -110
0 -110 98 6 c53 4 867 45 1807 91 941 47 2475 123 3410 170 936 47 1715 85
1733 85 22 0 32 5 32 15 0 17 -119 18 -655 4z"/>
        <path d="M7765 7693 c-44 -1 -300 -7 -570 -13 -269 -6 -683 -15 -920 -20 -800
-19 -3937 -89 -4460 -100 -286 -6 -557 -13 -602 -16 l-83 -6 0 -110 0 -110 87
6 c49 4 225 13 393 21 168 8 982 49 1810 90 828 41 2230 111 3115 155 886 44
1625 81 1644 82 19 2 36 9 39 16 4 12 -185 14 -453 5z"/>
        <path d="M7640 6479 c-367 -9 -999 -24 -2130 -49 -925 -21 -1510 -34 -2190
-50 -228 -5 -840 -19 -1360 -31 -520 -12 -946 -22 -947 -23 -1 0 -5 -49 -9
-108 l-7 -108 52 0 c29 0 1136 54 2459 120 1324 66 2864 143 3422 170 1178 58
1160 57 1160 76 0 16 26 15 -450 3z"/>
        <path d="M7690 5059 c-162 -4 -513 -12 -780 -18 -267 -6 -676 -16 -910 -21
-644 -16 -3916 -89 -4235 -95 -154 -3 -322 -8 -372 -11 l-93 -6 0 -110 0 -110
87 6 c49 4 495 27 993 51 498 25 1720 85 2715 135 996 49 2130 106 2520 125
833 41 767 37 773 53 4 14 -193 14 -698 1z"/>
        <path d="M7615 3779 c-165 -4 -518 -12 -785 -18 -267 -6 -676 -16 -910 -21
-234 -6 -825 -19 -1315 -30 -870 -19 -1362 -31 -2190 -50 -225 -5 -549 -12
-720 -15 -170 -3 -346 -8 -391 -11 l-81 -6 -6 -106 c-3 -59 -4 -108 -3 -109 1
-2 630 29 1397 67 4127 206 5611 280 5648 280 30 0 41 4 41 15 0 17 -141 18
-685 4z"/>
        <path d="M8400 2613 c-58 -2 -512 -12 -1010 -23 -498 -11 -1096 -24 -1330 -30
-805 -19 -1327 -30 -2200 -50 -481 -11 -1091 -25 -1355 -31 -264 -6 -613 -14
-775 -17 l-295 -7 -3 -112 -3 -113 73 6 c40 3 750 38 1578 79 828 41 2317 115
3310 165 993 49 1873 93 1957 96 83 4 158 11 165 15 27 17 -10 24 -112 22z"/>
        <path d="M5100 2033 c-8 -3 -34 -19 -57 -35 -74 -50 -146 -232 -169 -422 l-7
-59 -120 -124 c-184 -189 -315 -288 -374 -281 -26 3 -28 7 -31 51 -4 56 18
148 55 230 21 47 24 60 13 67 -24 15 -42 -2 -71 -67 -35 -76 -59 -171 -59
-235 0 -35 6 -54 24 -75 63 -73 198 -1 433 230 l122 120 0 -145 c-1 -157 9
-202 52 -232 65 -45 182 13 340 169 104 103 105 103 144 -15 50 -150 108 -169
308 -105 123 40 175 65 291 138 81 50 284 127 336 127 14 0 52 -14 85 -31 l60
-31 235 7 c129 4 269 11 310 16 183 22 195 22 250 4 71 -24 133 -16 245 30
123 51 157 47 234 -28 89 -89 124 -93 260 -30 101 46 137 52 260 46 93 -5 109
-4 124 12 35 35 17 40 -139 40 l-149 0 -93 -42 c-128 -60 -149 -58 -221 15
-43 44 -69 62 -106 72 -45 13 -53 12 -109 -9 -202 -76 -202 -76 -271 -58 -69
19 -142 21 -220 7 -27 -5 -168 -14 -313 -21 l-263 -11 -75 36 c-42 20 -82 36
-89 36 -24 0 -238 -72 -285 -95 -25 -13 -84 -47 -131 -77 -63 -40 -122 -66
-216 -96 -71 -23 -144 -42 -162 -42 -43 0 -74 33 -96 101 -25 77 -52 127 -74
139 -33 17 -69 -5 -170 -106 -52 -53 -118 -109 -146 -125 -51 -29 -118 -39
-130 -19 -16 26 -25 146 -19 264 l7 129 62 68 c165 179 254 395 186 450 -23
19 -43 22 -71 12z m33 -101 c-2 -52 -69 -182 -140 -274 -41 -54 -48 -60 -51
-41 -5 31 34 176 64 243 31 67 81 122 109 118 17 -3 20 -10 18 -46z"/>
        <path d="M8020 955 c0 -12 13 -15 60 -15 47 0 60 3 60 15 0 12 -13 15 -60 15
-47 0 -60 -3 -60 -15z"/>
        <path d="M8260 955 c0 -12 13 -15 60 -15 47 0 60 3 60 15 0 12 -13 15 -60 15
-47 0 -60 -3 -60 -15z"/>
        <path d="M7547 953 c-17 -17 -2 -23 53 -23 47 0 60 3 60 15 0 11 -13 15 -53
15 -30 0 -57 -3 -60 -7z"/>
        <path d="M7780 945 c0 -12 13 -15 60 -15 47 0 60 3 60 15 0 12 -13 15 -60 15
-47 0 -60 -3 -60 -15z"/>
        <path d="M7067 943 c-17 -17 -2 -23 53 -23 47 0 60 3 60 15 0 11 -13 15 -53
15 -30 0 -57 -3 -60 -7z"/>
        <path d="M7300 935 c0 -12 13 -15 60 -15 47 0 60 3 60 15 0 12 -13 15 -60 15
-47 0 -60 -3 -60 -15z"/>
        <path d="M6590 925 c0 -12 13 -15 61 -15 81 0 77 24 -4 28 -46 2 -57 0 -57
-13z"/>
        <path d="M6830 925 c0 -13 11 -15 57 -13 81 4 85 28 4 28 -48 0 -61 -3 -61
-15z"/>
        <path d="M6110 915 c0 -12 13 -15 60 -15 47 0 60 3 60 15 0 12 -13 15 -60 15
-47 0 -60 -3 -60 -15z"/>
        <path d="M6350 915 c0 -12 13 -15 60 -15 47 0 60 3 60 15 0 12 -13 15 -60 15
-47 0 -60 -3 -60 -15z"/>
        <path d="M5637 913 c-17 -17 -2 -23 53 -23 47 0 60 3 60 15 0 11 -13 15 -53
15 -30 0 -57 -3 -60 -7z"/>
        <path d="M5870 905 c0 -12 13 -15 60 -15 47 0 60 3 60 15 0 12 -13 15 -60 15
-47 0 -60 -3 -60 -15z"/>
        <path d="M5155 900 c-12 -19 4 -25 59 -22 40 3 56 8 56 18 0 17 -105 20 -115
4z"/>
        <path d="M5390 895 c0 -12 13 -15 60 -15 47 0 60 3 60 15 0 12 -13 15 -60 15
-47 0 -60 -3 -60 -15z"/>
        <path d="M4674 888 c-11 -17 6 -23 64 -20 48 3 60 7 55 18 -4 11 -20 14 -60
13 -30 -1 -56 -6 -59 -11z"/>
        <path d="M4910 885 c0 -12 13 -15 60 -15 47 0 60 3 60 15 0 12 -13 15 -60 15
-47 0 -60 -3 -60 -15z"/>
        <path d="M4200 872 c0 -16 7 -18 58 -14 64 5 67 6 57 21 -3 6 -31 11 -61 11
-46 0 -54 -3 -54 -18z"/>
        <path d="M4440 875 c0 -13 11 -15 57 -13 81 4 85 28 4 28 -48 0 -61 -3 -61
-15z"/>
    </g>
</svg>
